<svg width="520" height="520" viewBox="0 0 520 520" fill="none" xmlns="http://www.w3.org/2000/svg">
<path d="M387.155 171.136C397.703 160.588 397.703 143.459 387.155 132.911C376.607 122.363 359.477 122.363 348.93 132.911L260.075 221.85L171.136 132.995C160.588 122.447 143.459 122.447 132.911 132.995C122.363 143.543 122.363 160.673 132.911 171.22L221.85 260.075L132.995 349.014C122.447 359.562 122.447 376.691 132.995 387.239C143.543 397.787 160.673 397.787 171.22 387.239L260.075 298.3L349.014 387.155C359.562 397.703 376.691 397.703 387.239 387.155C397.787 376.607 397.787 359.477 387.239 348.93L298.3 260.075L387.155 171.136Z" fill="white"/>
<circle cx="260" cy="260" r="255" stroke="#C0C0C0" stroke-width="10"/>
</svg>
