<svg width="170" height="156" viewBox="0 0 170 156" fill="none" xmlns="http://www.w3.org/2000/svg">
<path d="M116.363 68.1156C117.179 76.2697 113.048 84.2473 105.411 90.5471C97.7793 96.8416 86.7476 101.359 74.1178 102.526C61.4879 103.693 49.7621 101.278 41.0217 96.4967C32.2737 91.7109 26.6354 84.636 25.8188 76.4819C25.0023 68.3278 29.1332 60.3502 36.771 54.0503C44.4023 47.7558 55.434 43.2388 68.0638 42.0718C80.6937 40.9048 92.4195 43.319 101.16 48.1008C109.908 52.8866 115.546 59.9615 116.363 68.1156Z" fill="white" stroke="#6752DC" stroke-width="2.5"/>
<path d="M117.267 59.6808C118.082 67.8202 113.835 75.8087 105.979 82.1353C98.1317 88.4545 86.7994 93.0026 73.8356 94.2004C60.8718 95.3983 48.8447 93.0086 39.8878 88.2421C30.9204 83.47 25.1654 76.4057 24.3503 68.2663C23.5352 60.1269 27.7828 52.1384 35.6388 45.8118C43.4856 39.4926 54.8179 34.9445 67.7817 33.7466C80.7455 32.5488 92.7726 34.9384 101.73 39.705C110.697 44.4771 116.452 51.5413 117.267 59.6808Z" fill="white" stroke="#6752DC" stroke-width="2.5"/>
<path d="M98.453 59.6005C98.8201 63.2665 96.5152 67.1384 91.8085 70.3933C87.1469 73.6171 80.3994 76.0154 72.6704 76.7296C64.9415 77.4438 57.8418 76.3249 52.6259 74.0138C47.3596 71.6803 44.3285 68.3015 43.9614 64.6355C43.5943 60.9696 45.8993 57.0977 50.606 53.8428C55.2676 50.619 62.015 48.2206 69.744 47.5064C77.473 46.7923 84.5726 47.9112 89.7885 50.2223C95.0548 52.5557 98.0859 55.9345 98.453 59.6005Z" fill="white" stroke="#6752DC" stroke-width="3"/>
<path d="M31.1973 62.9458C31.7517 60.3651 32.9556 57.8068 34.7646 55.3649L38.3607 56.1614C36.7325 58.3591 35.6491 60.6615 35.1501 62.9841L31.1973 62.9458Z" fill="#6752DC"/>
<path d="M38.621 80.1371C36.1385 78.2528 34.2016 76.1025 32.8816 73.7654L36.666 72.7218C37.854 74.8252 39.5972 76.7604 41.8315 78.4564L38.621 80.1371Z" fill="#6752DC"/>
<path d="M62.0169 87.7954C57.9331 87.5303 54.0186 86.8629 50.417 85.8174L52.4479 83.5686C55.6893 84.5095 59.2123 85.1103 62.8877 85.3488L62.0169 87.7954Z" fill="#6752DC"/>
<path d="M90.2944 83.2013C86.6481 84.7222 82.7013 85.9054 78.5988 86.7075L77.8115 84.3697C81.5037 83.6478 85.0558 82.5829 88.3375 81.2141L90.2944 83.2013Z" fill="#6752DC"/>
<path d="M108.94 67.5558C107.744 70.0984 105.924 72.5554 103.547 74.8365L100.264 73.6858C102.404 71.6328 104.042 69.4215 105.119 67.1332L108.94 67.5558Z" fill="#6752DC"/>
<path d="M101.101 45.3103C103.813 47.067 106.006 49.1104 107.6 51.3655L103.912 52.5619C102.478 50.5324 100.504 48.6933 98.0637 47.1122L101.101 45.3103Z" fill="#6752DC"/>
<path d="M74.6262 38.7383C78.791 38.6884 82.8654 39.0451 86.6998 39.7952L85.1024 42.1486C81.6514 41.4736 77.9844 41.1526 74.2361 41.1974L74.6262 38.7383Z" fill="#6752DC"/>
<path d="M45.4197 46.2766C48.6541 44.4166 52.2862 42.85 56.1829 41.6341L57.6371 43.8036C54.1301 44.8979 50.8612 46.3079 47.9503 47.9819L45.4197 46.2766Z" fill="#6752DC"/>
<path d="M66.5707 50.5107L57.8815 61.9579L61.6697 62.3561L63.0242 60.2353L61.9049 60.1176L66.1182 54.8154L68.1852 59.9943L70.8542 60.2748L66.5707 50.5107Z" fill="#6752DC" stroke="#6752DC" stroke-width="0.2"/>
<path d="M76.8539 63.9392L71.2849 50.6906L69.046 53.7722L70.2054 56.0056L70.8669 55.0951L73.3522 61.395L67.8336 60.5957L66.2562 62.7668L76.8539 63.9392Z" fill="#6752DC" stroke="#6752DC" stroke-width="0.2"/>
<path d="M59.7651 66.1894L74.0232 67.9908L72.474 64.5111L69.96 64.3985L70.4177 65.4266L63.7193 64.4289L67.1708 60.0494L66.0793 57.5977L59.7651 66.1894Z" fill="#6752DC" stroke="#6752DC" stroke-width="0.2"/>
<path d="M154.318 86.3753C151.748 94.1566 144.729 99.7642 135.189 102.413C125.658 105.059 113.742 104.699 101.73 100.628C89.7173 96.5569 79.9872 89.5821 73.9473 81.6587C67.9022 73.7286 65.6289 64.972 68.1995 57.1907C70.7701 49.4095 77.7888 43.8018 87.3286 41.1531C96.8603 38.5068 108.775 38.8673 120.788 42.9382C132.801 47.0091 142.531 53.9839 148.571 61.9073C154.616 69.8375 156.889 78.594 154.318 86.3753Z" fill="white" stroke="#6752DC" stroke-width="2.5"/>
<path d="M158.575 79.0375C156.009 86.8048 148.88 92.375 139.13 94.9593C129.391 97.5406 117.188 97.0862 104.858 92.9077C92.528 88.7291 82.5127 81.6542 76.2689 73.6566C70.0177 65.6497 67.6335 56.8555 70.1995 49.0882C72.7655 41.3209 79.8951 35.7507 89.6451 33.1664C99.3838 30.5851 111.586 31.0395 123.916 35.2181C136.247 39.3966 146.262 46.4715 152.506 54.4691C158.757 62.476 161.141 71.2703 158.575 79.0375Z" fill="white" stroke="#6752DC" stroke-width="2.5"/>
<path d="M141.42 71.3121C140.265 74.8105 136.584 77.4101 130.961 78.4693C125.391 79.5183 118.251 78.9649 110.9 76.4736C103.549 73.9824 97.5178 70.0725 93.6929 65.8398C89.8309 61.5661 88.4362 57.2465 89.5919 53.7481C90.7476 50.2498 94.4282 47.6502 100.052 46.591C105.622 45.542 112.761 46.0954 120.113 48.5866C127.464 51.0779 133.495 54.9878 137.319 59.2205C141.181 63.4942 142.576 67.8138 141.42 71.3121Z" fill="white" stroke="#6752DC" stroke-width="3"/>
<path d="M78.6185 47.0126C80.1747 44.8806 82.315 43.0331 84.9609 41.5381L87.9221 43.7284C85.5408 45.0739 83.6145 46.7366 82.214 48.6554L78.6185 47.0126Z" fill="#6752DC"/>
<path d="M78.4081 65.7372C76.9066 63.006 76.0118 60.2539 75.7565 57.5819L79.6382 58.1678C79.868 60.5726 80.6733 63.0495 82.0246 65.5076L78.4081 65.7372Z" fill="#6752DC"/>
<path d="M96.6664 82.2493C93.0435 80.3462 89.7389 78.1442 86.8739 75.7243L89.6438 74.496C92.2223 76.6739 95.1964 78.6556 98.4571 80.3685L96.6664 82.2493Z" fill="#6752DC"/>
<path d="M124.368 89.5539C120.418 89.4602 116.331 88.9359 112.257 88L112.489 85.5441C116.155 86.3864 119.834 86.8583 123.388 86.9426L124.368 89.5539Z" fill="#6752DC"/>
<path d="M147.765 82.845C145.638 84.6812 142.976 86.1854 139.876 87.3024L137.346 84.9163C140.136 83.9109 142.532 82.5571 144.446 80.9046L147.765 82.845Z" fill="#6752DC"/>
<path d="M149.652 59.3343C151.415 62.0421 152.587 64.8008 153.126 67.5091L149.27 67.1023C148.785 64.6648 147.73 62.1819 146.144 59.745L149.652 59.3343Z" fill="#6752DC"/>
<path d="M128.139 42.5621C131.964 44.2105 135.541 46.1936 138.739 48.4384L136.322 49.9386C133.444 47.9183 130.225 46.1336 126.782 44.65L128.139 42.5621Z" fill="#6752DC"/>
<path d="M98.3914 37.5693C102.103 37.1857 106.058 37.2319 110.112 37.706L110.558 40.2794C106.909 39.8527 103.35 39.8112 100.01 40.1565L98.3914 37.5693Z" fill="#6752DC"/>
<path d="M125.203 57.5753L111.474 53.3254L112.396 57.0213L114.852 57.5688L114.58 56.4768L121.003 58.6225L116.844 62.3361L117.493 64.9401L125.203 57.5753Z" fill="#6752DC" stroke="#6752DC" stroke-width="0.2"/>
<path d="M116.102 71.8315L126.647 62.067L122.985 61.0171L121.283 62.8705L122.365 63.1806L117.295 67.6707L116.158 62.2116L113.579 61.4719L116.102 71.8315Z" fill="#6752DC" stroke="#6752DC" stroke-width="0.2"/>
<path d="M108.142 56.5427L111.326 70.557L114.066 67.9111L113.312 65.5102L112.503 66.292L111.149 59.6563L116.445 61.4018L118.376 59.5376L108.142 56.5427Z" fill="#6752DC" stroke="#6752DC" stroke-width="0.2"/>
<path d="M127.54 56.4817C132.832 62.7392 133.946 71.6536 131.22 81.1716C128.496 90.6814 121.963 100.652 112.215 108.768C102.467 116.883 91.4365 121.535 81.5249 122.545C71.6048 123.556 62.9508 120.919 57.6593 114.661C52.3678 108.404 51.2537 99.4894 53.98 89.9714C56.7038 80.4616 63.2369 70.4906 72.9845 62.3752C82.7321 54.2598 93.763 49.6079 103.675 48.598C113.595 47.5872 122.249 50.2242 127.54 56.4817Z" fill="white" stroke="#6752DC" stroke-width="2.5"/>
<path d="M123.508 49.0182C128.79 55.2644 129.814 64.2538 126.923 73.9174C124.036 83.5697 117.272 93.7366 107.267 102.067C97.2617 110.396 85.9964 115.239 75.9149 116.384C65.8217 117.531 57.0776 114.969 51.7957 108.722C46.5137 102.476 45.4895 93.4867 48.3804 83.8231C51.2679 74.1708 58.0311 64.0039 68.0365 55.674C78.0418 47.344 89.3071 42.5011 99.3886 41.3561C109.482 40.2097 118.226 42.7719 123.508 49.0182Z" fill="white" stroke="#6752DC" stroke-width="2.5"/>
<path d="M107.957 59.6084C110.336 62.4217 110.63 66.9181 108.595 72.2665C106.579 77.5637 102.377 83.362 96.4114 88.3283C90.4463 93.2946 83.9615 96.3938 78.3539 97.4435C72.6921 98.5033 68.2804 97.4356 65.9014 94.6223C63.5224 91.809 63.2289 87.3125 65.2642 81.9642C67.28 76.667 71.4823 70.8686 77.4475 65.9023C83.4126 60.936 89.8974 57.8368 95.505 56.7872C101.167 55.7273 105.578 56.7951 107.957 59.6084Z" fill="white" stroke="#6752DC" stroke-width="3"/>
<path d="M54.4249 100.459C53.4201 98.0186 52.9632 95.2284 53.071 92.1913L56.4858 90.8108C56.3888 93.5442 56.8 96.0554 57.7043 98.2521L54.4249 100.459Z" fill="#6752DC"/>
<path d="M70.2803 110.422C67.167 110.276 64.353 109.601 61.9413 108.422L64.469 105.419C66.6395 106.479 69.1722 107.087 71.9741 107.219L70.2803 110.422Z" fill="#6752DC"/>
<path d="M93.8991 103.482C90.3835 105.577 86.7793 107.244 83.2191 108.422L83.619 105.419C86.8232 104.358 90.067 102.858 93.2311 100.973L93.8991 103.482Z" fill="#6752DC"/>
<path d="M114.601 83.6795C112.458 86.9982 109.875 90.2088 106.949 93.1935L104.976 91.7128C107.61 89.0266 109.934 86.1371 111.863 83.1502L114.601 83.6795Z" fill="#6752DC"/>
<path d="M121.106 60.2245C121.56 62.9976 121.452 66.0534 120.785 69.2798L117.428 70.1905C118.028 67.2867 118.126 64.5365 117.717 62.0407L121.106 60.2245Z" fill="#6752DC"/>
<path d="M102.046 46.3315C105.275 46.2434 108.24 46.6854 110.831 47.6411L108.47 50.7156C106.138 49.8555 103.47 49.4577 100.563 49.537L102.046 46.3315Z" fill="#6752DC"/>
<path d="M76.5045 55.9109C79.9086 53.5109 83.4684 51.4971 87.0533 49.9434L87.0699 52.7877C83.8434 54.1861 80.6396 55.9985 77.5759 58.1585L76.5045 55.9109Z" fill="#6752DC"/>
<path d="M56.7044 78.6662C58.3165 75.3014 60.4225 71.953 62.9451 68.7439L65.3724 69.7082C63.1021 72.5964 61.2067 75.61 59.7559 78.6382L56.7044 78.6662Z" fill="#6752DC"/>
<path d="M87.7715 66.2587L76.9746 75.7438L80.6073 76.8893L82.3575 75.0811L81.2841 74.7426L86.4699 70.3868L87.4629 75.8739L90.0224 76.6808L87.7715 66.2587Z" fill="#6752DC" stroke="#6752DC" stroke-width="0.2"/>
<path d="M95.1711 81.4677L92.3553 67.3748L89.547 69.9482L90.2378 72.3679L91.0675 71.6075L92.2469 78.2764L86.9985 76.393L85.0199 78.206L95.1711 81.4677Z" fill="#6752DC" stroke="#6752DC" stroke-width="0.2"/>
<path d="M77.9768 80.2657L91.5895 84.8735L90.7651 81.1548L88.324 80.5432L88.5676 81.642L82.2026 79.3289L86.458 75.7254L85.8771 73.1054L77.9768 80.2657Z" fill="#6752DC" stroke="#6752DC" stroke-width="0.2"/>
</svg>
