<svg width="110" height="127" viewBox="0 0 110 127" fill="none" xmlns="http://www.w3.org/2000/svg">
<path d="M3.79919 60.9999L3.79922 68.0663L11.0414 63.5L3.22266 67.4686L3.79922 68.0663C5.55703 69.8944 7.63828 72.4326 9.29766 74.767C17.8195 86.7834 21.7359 100.986 20.5547 115.597C20.3859 117.686 20.1961 119.211 19.8023 121.588C19.5492 123.128 19.5492 123.156 19.6688 123.472C19.7461 123.662 19.8937 123.866 20.0484 123.986C20.2875 124.161 20.3367 124.175 21.0047 124.168C21.5531 124.161 21.8555 124.119 22.3266 123.979C23.6766 123.571 26.8547 122.382 28.943 121.511L30.0609 121.047L31.2984 121.722C34.6664 123.543 37.7391 124.871 40.3125 125.617C40.875 125.779 41.4797 125.954 41.6695 126.011C41.9578 126.102 42.0422 126.102 42.3375 126.011C42.5203 125.954 43.125 125.779 43.6875 125.617C46.2539 124.871 49.3477 123.536 52.7016 121.714L53.9531 121.039L54.9516 121.454C57.2578 122.411 58.875 123.029 60.5625 123.613C61.9055 124.07 62.2359 124.154 62.8898 124.196C63.4242 124.225 63.5297 124.211 63.7688 124.077C64.1203 123.873 64.282 123.655 64.3453 123.282C64.4016 122.973 64.3875 122.818 64.05 120.695C62.243 109.171 63.4594 98.0685 67.6781 87.5779C70.5258 80.5115 75.082 73.403 80.1516 68.1155L80.7773 67.4686V63.5V60.9999H42H7.34297H3.79919ZM14.7539 67.5811C14.8945 67.7288 14.8594 67.9959 14.5078 69.4022C14.1984 70.6397 13.8398 71.6311 13.4039 72.4678C13.0383 73.1709 12.4195 74.0217 12.3 73.9865C12.2578 73.9725 12.068 73.7475 11.8711 73.4803C10.6758 71.842 9.34688 70.1123 8.60156 69.2264C8.1375 68.6639 7.63828 68.0733 7.49766 67.9045C7.28672 67.6584 7.25859 67.5881 7.34297 67.5319C7.39922 67.4967 9.00937 67.4686 11.0414 67.4686C14.2617 67.4686 14.6484 67.4827 14.7539 67.5811ZM27.6492 67.56C27.7828 67.7217 26.9883 70.4217 26.3062 72.1444C25.357 74.528 23.5148 78.0154 23.2055 78.0154C23.1141 78.0154 22.2 76.5108 21.2578 74.8233C20.2734 73.0584 18.9094 70.2389 18.1289 68.3545C17.8617 67.7077 17.8336 67.567 17.9742 67.5178C18.0164 67.4967 20.1961 67.4756 22.8117 67.4756C26.7211 67.4686 27.5859 67.4827 27.6492 67.56ZM40.4531 67.5741C40.7695 67.9608 40.0945 71.0686 39.1734 73.4451C38.7867 74.4365 38.0484 75.9764 37.507 76.9256C36.9305 77.9311 35.9531 79.4217 35.8758 79.4217C35.7281 79.4217 34.7086 77.6568 33.7664 75.7654C32.6414 73.5014 31.7273 71.2092 31.0312 68.903C30.6516 67.6514 30.6375 67.567 30.7711 67.5178C30.8133 67.4967 32.993 67.4756 35.6086 67.4756C39.7219 67.4686 40.3758 67.4827 40.4531 67.5741ZM53.2078 67.5108C53.2711 67.5319 53.3203 67.5952 53.3203 67.6514C53.3203 67.8202 52.6313 70.035 52.2586 71.0686C51.6891 72.6506 50.9156 74.3944 50.0086 76.1873C49.1578 77.8537 48.2859 79.3584 48.1453 79.4006C48.1031 79.4146 47.8148 79.035 47.5055 78.5639C45.4453 75.4139 44.2008 72.3834 43.5891 69.0717C43.4133 68.1366 43.4062 67.7569 43.568 67.553C43.6172 67.4897 44.6648 67.4686 48.3633 67.4686C50.9719 67.4686 53.1445 67.4897 53.2078 67.5108ZM66.0047 67.5108C66.068 67.5319 66.1172 67.5952 66.1172 67.6514C66.1172 67.7639 65.5969 69.0295 65.0836 70.1686C63.8883 72.8334 61.0406 78.0154 60.7734 78.0154C60.5203 78.0154 58.7133 74.6475 57.9188 72.7069C57.1172 70.7452 56.2102 67.7358 56.3578 67.56C56.4141 67.4897 57.3492 67.4686 61.1602 67.4686C63.7687 67.4686 65.9414 67.4897 66.0047 67.5108ZM76.6641 67.5389C76.7766 67.6092 76.8187 67.5459 76.0945 68.3827C75.068 69.5639 73.493 71.5819 72.3891 73.1358C71.7281 74.0639 71.7281 74.0639 71.4961 73.8178C70.5398 72.8053 69.6258 70.4991 69.1758 67.9538C69.0844 67.4475 68.9227 67.4686 72.9586 67.4686C75.0398 67.4686 76.6008 67.4967 76.6641 67.5389ZM17.1937 73.1428C18.0516 74.9287 19.5633 77.6498 20.8148 79.6607C21.1031 80.1178 21.3562 80.5326 21.3703 80.5748C21.3914 80.624 21.1664 80.9475 20.8711 81.292C20.1609 82.1217 18.1641 84.1326 18.0445 84.1326C17.9953 84.1326 17.5664 83.3521 17.0812 82.3537C16.1391 80.4412 15.5203 79.2951 14.5219 77.6006L13.882 76.5178L14.3742 75.9834C15.1828 75.1115 16.0266 73.7405 16.4906 72.5451C16.5539 72.3834 16.6453 72.2498 16.6875 72.2498C16.7297 72.2498 16.9617 72.6506 17.1937 73.1428ZM67.5094 72.5451C67.9734 73.7405 68.8172 75.1115 69.6258 75.9834L70.118 76.5178L69.4781 77.6006C68.4797 79.2951 67.8609 80.4412 66.9187 82.3537C66.4125 83.3873 66.0047 84.1326 65.9484 84.1326C65.7727 84.1326 63.382 81.6576 62.6789 80.7435C62.6016 80.6381 62.6719 80.4834 63.2484 79.5482C64.5844 77.3967 65.9766 74.8795 66.8414 73.0725C67.0594 72.6225 67.2703 72.2498 67.3125 72.2498C67.3547 72.2498 67.4461 72.3834 67.5094 72.5451ZM29.4914 73.1076C30.3 75.3225 32.0648 78.8381 33.5203 81.1373C33.7383 81.4889 33.9141 81.8264 33.9141 81.8967C33.9141 82.2131 29.4141 86.4388 29.182 86.3404C28.9148 86.2209 24.9563 80.9686 24.9633 80.7295C24.9633 80.6873 25.2305 80.2373 25.5609 79.7381C26.7844 77.8678 27.9375 75.674 28.7461 73.6701C28.9711 73.1217 29.1891 72.6717 29.2383 72.6717C29.2875 72.6717 29.4 72.8686 29.4914 73.1076ZM55.2539 73.6701C56.0484 75.6389 57.2156 77.8678 58.4109 79.7029C58.7273 80.1881 59.0086 80.617 59.0367 80.6592C59.093 80.7506 58.2914 81.9178 57.0961 83.4998C55.9922 84.9623 54.9164 86.2982 54.8109 86.3404C54.6633 86.4037 53.0672 85.0115 51.5484 83.4857C50.7328 82.6701 50.0859 81.967 50.0859 81.8967C50.0859 81.8264 50.2617 81.4889 50.4797 81.1373C51.9352 78.8381 53.7 75.3225 54.5086 73.1076C54.6 72.8686 54.7125 72.6717 54.7617 72.6717C54.8109 72.6717 55.0289 73.1217 55.2539 73.6701ZM42.3656 74.9287C43.0969 76.7428 44.475 79.2389 45.7125 80.9756C46.0711 81.4818 46.3875 81.9389 46.4016 81.9881C46.4367 82.0795 45.825 82.9443 44.925 84.0623C43.8773 85.3701 42.1336 87.2966 42 87.2966C41.8734 87.2966 40.0875 85.3209 39.075 84.0623C38.4141 83.2396 37.5703 82.1076 37.5703 82.0443C37.5703 82.0092 37.8867 81.5381 38.2664 81.0037C39.6867 79.0139 40.8047 76.9537 41.8172 74.4787C41.8805 74.324 41.9648 74.2186 42.0141 74.2326C42.0633 74.2537 42.218 74.5631 42.3656 74.9287ZM23.543 83.7248C24.1195 84.5474 25.1531 85.8904 26.0953 87.0716C26.7984 87.9506 26.8828 88.0912 26.7984 88.1896C26.4469 88.6255 21.1102 91.7896 20.8781 91.7052C20.8289 91.6841 20.6391 91.199 20.4492 90.6224C20.2664 90.0529 19.9148 89.0404 19.6688 88.3724C19.4227 87.7045 19.2188 87.1138 19.2188 87.0576C19.2188 86.9943 19.3664 86.8115 19.5492 86.6498C20.5898 85.7006 21.4758 84.8357 22.2141 84.0412C22.6711 83.549 23.0648 83.1482 23.0859 83.1482C23.1141 83.1482 23.318 83.4084 23.543 83.7248ZM61.7859 84.0412C62.5242 84.8357 63.4102 85.7006 64.4508 86.6498C64.6336 86.8115 64.7812 86.9943 64.7812 87.0576C64.7812 87.1138 64.5773 87.7045 64.3312 88.3724C64.0852 89.0404 63.7336 90.0529 63.5508 90.6224C63.3609 91.199 63.1711 91.6841 63.1219 91.7052C62.8898 91.7896 57.5531 88.6255 57.2016 88.1896C57.1172 88.0912 57.2227 87.9295 58.0523 86.8959C58.9805 85.7287 59.9578 84.449 60.5555 83.5842C60.7242 83.3451 60.8859 83.1482 60.907 83.1482C60.9352 83.1482 61.3289 83.549 61.7859 84.0412ZM35.9602 84.681C36.5508 85.5107 38.3086 87.592 39.2789 88.6115C39.6164 88.9701 39.8906 89.2865 39.8906 89.3146C39.8906 89.5396 35.6648 92.9919 35.3977 92.9919C35.2148 92.9919 31.1719 88.7802 31.1719 88.5904C31.1719 88.5412 31.6078 88.1263 32.1422 87.6763C32.6695 87.2193 33.668 86.2842 34.357 85.5951C35.0461 84.9131 35.6437 84.3646 35.693 84.3857C35.7422 84.3998 35.8617 84.5334 35.9602 84.681ZM49.6359 85.5951C50.325 86.2842 51.3305 87.2193 51.8648 87.6693C52.3922 88.1263 52.8281 88.5412 52.8281 88.5904C52.8281 88.7873 48.7922 92.9919 48.6023 92.9919C48.3281 92.9919 44.1094 89.5396 44.1094 89.3146C44.1094 89.2794 44.3555 88.9912 44.6578 88.6748C45.593 87.7045 46.8305 86.256 47.7305 85.0818C48.1383 84.5545 48.3141 84.3506 48.3703 84.3435C48.3773 84.3435 48.9469 84.906 49.6359 85.5951ZM29.4211 90.9669C29.7445 91.3255 30.6656 92.3029 31.4672 93.1396C32.8102 94.5388 32.9156 94.6654 32.8031 94.7638C32.6133 94.9255 31.0312 95.8677 29.9062 96.4935C28.1203 97.4779 25.1812 98.8982 24.9281 98.8982C24.8578 98.8982 24.3305 98.413 23.7539 97.8224C21.8836 95.924 21.968 96.0294 21.8203 95.4458C21.5812 94.5388 21.5039 94.6513 22.9312 93.8919C24.4781 93.0693 26.1516 92.0638 27.6211 91.0794C28.2398 90.6646 28.7672 90.3271 28.7883 90.3271C28.8094 90.3201 29.0906 90.6154 29.4211 90.9669ZM56.1609 90.9388C57.9117 92.1201 59.4797 93.0622 61.357 94.0466C62.4609 94.6232 62.4117 94.5388 62.1727 95.481L62.025 96.0646L60.5695 97.52L59.107 98.9685L58.6922 98.7857C57.6305 98.3075 55.0781 97.0419 54.1289 96.5146C52.9617 95.8677 51.3867 94.9255 51.1969 94.7638C51.0844 94.6654 51.1898 94.5388 52.5328 93.1396C53.3344 92.3029 54.2555 91.3255 54.5789 90.9669C54.9094 90.6154 55.1906 90.3201 55.2047 90.3201C55.2187 90.3201 55.6477 90.6013 56.1609 90.9388ZM42.5414 91.8037C43.2797 92.4716 44.693 93.6458 45.607 94.3349C46.057 94.6865 46.4297 94.9888 46.4297 95.024C46.4297 95.1154 42.9703 98.0544 42.2883 98.5396C42.1758 98.6239 42.0422 98.6872 41.9859 98.6872C41.8172 98.6872 37.9008 95.4458 37.6547 95.1013C37.5703 94.9888 37.6406 94.9115 38.393 94.3419C39.307 93.6458 40.7203 92.4787 41.4586 91.8037C41.7188 91.5716 41.9648 91.3748 42 91.3748C42.0352 91.3748 42.2813 91.5716 42.5414 91.8037ZM35.9672 97.4286C36.6492 98.0403 37.4016 98.6802 39.1734 100.15C39.3703 100.318 39.5391 100.494 39.5391 100.543C39.5391 100.712 35.9109 103.194 33.5344 104.657C32.7891 105.114 32.4375 105.297 32.3391 105.268C32.0156 105.177 27.3047 101.282 27.3047 101.099C27.3047 101.05 27.9938 100.663 28.8375 100.241C31.0383 99.1443 33.1055 97.9771 34.582 97.0068C34.8141 96.8521 35.0391 96.7255 35.0883 96.7255C35.1305 96.7185 35.5242 97.0349 35.9672 97.4286ZM49.7414 97.2177C51.4711 98.3075 53.2078 99.2778 55.3031 100.318C56.0625 100.691 56.7023 101.036 56.7234 101.071C56.8148 101.218 51.893 105.297 51.6258 105.297C51.2672 105.297 44.4609 100.783 44.4609 100.543C44.4609 100.494 44.6297 100.318 44.8336 100.15C46.5984 98.6802 47.3508 98.0403 48.0328 97.4286C48.4758 97.0349 48.8625 96.7185 48.8906 96.7185C48.9258 96.7185 49.3125 96.9435 49.7414 97.2177ZM25.4977 103.349C26.6508 104.361 28.3805 105.817 29.1891 106.45C29.4281 106.64 29.625 106.829 29.625 106.879C29.625 107.033 24.0141 109.937 23.7187 109.937C23.5852 109.937 23.5781 109.888 23.5781 109.241C23.5781 108.313 23.4656 106.337 23.318 104.699C23.2477 103.961 23.1984 103.222 23.1914 103.054V102.744L23.6484 102.547C23.9016 102.442 24.1617 102.35 24.232 102.35C24.3023 102.343 24.8719 102.793 25.4977 103.349ZM60.3234 102.54L60.8086 102.744V103.054C60.8016 103.222 60.7523 103.961 60.682 104.699C60.5273 106.393 60.4219 108.207 60.4219 109.178C60.4219 109.888 60.4148 109.937 60.2812 109.937C60.0422 109.937 54.9164 107.322 54.5086 106.991L54.3539 106.865L54.9023 106.415C56.1961 105.367 57.9891 103.855 58.8047 103.124C59.2828 102.695 59.7117 102.343 59.7609 102.343C59.8031 102.343 60.0563 102.435 60.3234 102.54ZM43.2305 103.229C44.4328 104.101 47.4914 106.161 48.4547 106.738C48.7711 106.935 49.0312 107.139 49.0312 107.195C49.0242 107.251 48.8484 107.427 48.6234 107.575C46.043 109.354 42.2391 111.765 42.0211 111.765C41.6695 111.765 34.9266 107.357 34.9898 107.167C35.0039 107.125 35.2148 106.963 35.4539 106.808C36.7969 105.958 39.7922 103.94 40.7695 103.229C41.3883 102.779 41.9437 102.414 42 102.414C42.0563 102.414 42.6117 102.779 43.2305 103.229ZM33.4359 109.628C34.6172 110.472 37.05 112.096 38.3297 112.897C38.7586 113.165 39.0398 113.39 39.0328 113.446C38.9836 113.706 30.75 117.812 30.2789 117.812C30.2086 117.812 29.618 117.489 28.957 117.095C27.6633 116.314 23.6203 113.65 23.543 113.53C23.5219 113.488 23.5148 113.397 23.543 113.326C23.5641 113.256 24.675 112.665 26.4469 111.786C28.0219 111.006 29.9273 110.022 30.6797 109.6C31.432 109.171 32.107 108.819 32.1703 108.819C32.2336 108.812 32.8031 109.178 33.4359 109.628ZM53.2992 109.593C54.0656 110.022 55.9781 111.006 57.5531 111.786C59.325 112.665 60.4359 113.256 60.457 113.326C60.4852 113.397 60.4781 113.488 60.457 113.53C60.3797 113.643 56.4492 116.237 55.0781 117.067C54.4031 117.475 53.7984 117.812 53.7422 117.812C53.3344 117.812 44.9531 113.643 44.9531 113.446C44.9531 113.404 45.2414 113.193 45.593 112.975C46.6969 112.286 50.0156 110.064 50.8945 109.424C51.3586 109.093 51.7734 108.812 51.8227 108.812C51.8648 108.812 52.5258 109.164 53.2992 109.593ZM43.5258 115.956C44.3273 116.399 46.2258 117.383 47.7305 118.136C49.2422 118.888 50.4797 119.549 50.4938 119.598C50.5078 119.654 49.9875 119.95 49.1578 120.357C46.7883 121.532 44.6789 122.389 42.9 122.91L42 123.17L41.107 122.903C39.743 122.509 38.3438 121.982 36.7617 121.272C35.4469 120.688 33.4922 119.689 33.4922 119.612C33.4922 119.57 34.6594 118.958 36.0797 118.255C37.5 117.552 39.4055 116.568 40.3125 116.061C41.2195 115.555 41.9859 115.147 42.0141 115.14C42.0422 115.14 42.7172 115.506 43.5258 115.956ZM24.682 117.742C25.3078 118.15 26.0602 118.635 26.3555 118.818C26.6508 119.007 26.8758 119.197 26.8617 119.239C26.8125 119.401 22.9805 120.829 22.875 120.723C22.8469 120.688 22.875 120.259 22.9453 119.746C23.0156 119.239 23.107 118.466 23.1562 118.023C23.2406 117.13 23.318 116.863 23.4586 116.947C23.5008 116.975 24.0562 117.334 24.682 117.742ZM60.8719 118.248C60.9352 118.881 61.0266 119.668 61.0687 120.013C61.125 120.428 61.125 120.653 61.0758 120.702C61.0336 120.744 60.5555 120.604 59.6063 120.245C57.532 119.457 57.1594 119.31 57.1313 119.232C57.1172 119.19 57.3492 119.007 57.6445 118.818C57.9398 118.635 58.7273 118.129 59.3883 117.693C60.3727 117.046 60.6117 116.919 60.675 117.004C60.7102 117.053 60.8016 117.615 60.8719 118.248Z" fill="#6752DC"/>
<rect x="1" y="58" width="83" height="11" rx="5.5" fill="white" stroke="#6752DC" stroke-width="2"/>
<path d="M23.9394 106.328L22.9495 101L25 102L38.5 100L43 102L49 97.5L55 100L60.5 102V104L70 106.328L67 126H18L19.9798 109.607L18 106.328H23.9394Z" fill="white" stroke="white"/>
<path d="M88.6727 23.6664C98.9724 35.5149 97.7169 53.4696 85.8684 63.7694C74.0199 74.0691 56.0652 72.8136 45.7655 60.9651C35.4657 49.1166 36.7213 31.1619 48.5698 20.8622C60.4182 10.5624 78.3729 11.8179 88.6727 23.6664Z" fill="white" stroke="#6752DC" stroke-width="3"/>
<mask id="path-5-inside-1_3591_644" fill="white">
<path d="M40.053 41.3617C46.3431 42.7351 52.6013 46.4168 57.6311 52.203C62.6609 57.9891 65.3331 64.5806 65.9204 71.1188C67.3222 71.5588 68.718 71.7966 70.1139 72.0344C69.5938 64.4012 66.3848 56.4104 60.6365 49.7977C54.7855 43.067 47.3191 38.777 39.9352 37.3178C39.6743 38.5811 39.8123 39.9123 40.053 41.3617Z"/>
</mask>
<path d="M40.053 41.3617C46.3431 42.7351 52.6013 46.4168 57.6311 52.203C62.6609 57.9891 65.3331 64.5806 65.9204 71.1188C67.3222 71.5588 68.718 71.7966 70.1139 72.0344C69.5938 64.4012 66.3848 56.4104 60.6365 49.7977C54.7855 43.067 47.3191 38.777 39.9352 37.3178C39.6743 38.5811 39.8123 39.9123 40.053 41.3617Z" fill="#6752DC"/>
<path d="M40.053 41.3617L33.1475 42.5082L33.9246 47.1885L38.5597 48.2005L40.053 41.3617ZM65.9204 71.1188L58.9485 71.7451L59.3665 76.3983L63.824 77.7975L65.9204 71.1188ZM70.1139 72.0344L68.9382 78.935L77.7019 80.4281L77.0977 71.5587L70.1139 72.0344ZM39.9352 37.3178L41.2923 30.4506L34.4831 29.105L33.0797 35.9024L39.9352 37.3178ZM38.5597 48.2005C43.2634 49.2276 48.2272 52.0548 52.3481 56.7954L62.914 47.6105C56.9753 40.7788 49.4228 36.2427 41.5463 34.5228L38.5597 48.2005ZM52.3481 56.7954C56.433 61.4945 58.4958 66.7057 58.9485 71.7451L72.8924 70.4925C72.1704 62.4555 68.8887 54.4836 62.914 47.6105L52.3481 56.7954ZM63.824 77.7975C65.7499 78.402 67.6083 78.7084 68.9382 78.935L71.2895 65.1339C69.8277 64.8848 68.8945 64.7156 68.0169 64.4401L63.824 77.7975ZM77.0977 71.5587C76.4704 62.3504 72.6315 52.9267 65.9194 45.2053L55.3535 54.3901C60.138 59.8941 62.7173 66.452 63.1301 72.5102L77.0977 71.5587ZM65.9194 45.2053C59.1266 37.3911 50.3137 32.2334 41.2923 30.4506L38.5781 44.185C44.3245 45.3206 50.4443 48.7428 55.3535 54.3901L65.9194 45.2053ZM33.0797 35.9024C32.5393 38.5203 32.8888 40.9501 33.1475 42.5082L46.9584 40.2151C46.8551 39.5929 46.811 39.2079 46.7981 38.9372C46.7861 38.6848 46.8084 38.6469 46.7906 38.7331L33.0797 35.9024Z" fill="#6752DC" mask="url(#path-5-inside-1_3591_644)"/>
<mask id="path-7-inside-2_3591_644" fill="white">
<path d="M79.502 32.7437C74.682 27.1989 71.8311 20.7536 71.0294 14.555C69.7036 14.0851 68.3911 13.8064 67.0786 13.5277C67.8599 20.758 71.1658 28.4302 76.7892 34.8992C82.3121 41.2526 89.3625 45.6698 96.6012 47.4896C96.5079 46.1511 96.4145 44.8126 96.1337 43.4342C90.1204 41.9689 84.2216 38.173 79.502 32.7437Z"/>
</mask>
<path d="M79.502 32.7437C74.682 27.1989 71.8311 20.7536 71.0294 14.555C69.7036 14.0851 68.3911 13.8064 67.0786 13.5277C67.8599 20.758 71.1658 28.4302 76.7892 34.8992C82.3121 41.2526 89.3625 45.6698 96.6012 47.4896C96.5079 46.1511 96.4145 44.8126 96.1337 43.4342C90.1204 41.9689 84.2216 38.173 79.502 32.7437Z" fill="#6752DC"/>
<path d="M71.0294 14.555L77.9716 13.6571L77.4201 9.39352L73.368 7.95725L71.0294 14.555ZM67.0786 13.5277L68.5327 6.68036L59.081 4.67318L60.1191 14.2797L67.0786 13.5277ZM96.6012 47.4896L94.8946 54.2783L104.256 56.6318L103.584 47.0026L96.6012 47.4896ZM96.1337 43.4342L102.993 42.0366L102.106 37.6848L97.791 36.6333L96.1337 43.4342ZM84.785 28.1513C80.8131 23.5822 78.5855 18.4041 77.9716 13.6571L64.0872 15.453C65.0767 23.1031 68.5509 30.8156 74.2191 37.3361L84.785 28.1513ZM73.368 7.95725C71.541 7.30967 69.7852 6.94636 68.5327 6.68036L65.6245 20.375C66.9969 20.6664 67.8661 20.8605 68.6908 21.1529L73.368 7.95725ZM60.1191 14.2797C61.0641 23.0243 65.0083 32.0166 71.5062 39.4916L82.0721 30.3068C77.3233 24.8439 74.6558 18.4916 74.0381 12.7756L60.1191 14.2797ZM71.5062 39.4916C77.8789 46.8225 86.1402 52.0775 94.8946 54.2783L98.3079 40.7008C92.5848 39.2621 86.7454 35.6827 82.0721 30.3068L71.5062 39.4916ZM103.584 47.0026C103.495 45.7252 103.38 43.936 102.993 42.0366L89.2746 44.8318C89.4493 45.6892 89.5206 46.577 89.6182 47.9766L103.584 47.0026ZM97.791 36.6333C93.4081 35.5652 88.7159 32.6733 84.785 28.1513L74.2191 37.3361C79.7274 43.6727 86.8327 48.3725 94.4764 50.2352L97.791 36.6333Z" fill="#6752DC" mask="url(#path-7-inside-2_3591_644)"/>
<mask id="path-9-inside-3_3591_644" fill="white">
<path d="M43.9732 61.1897C44.3013 61.567 44.9573 62.3217 45.0686 62.225L90.1286 23.0549C90.1286 23.0549 89.5838 22.2035 89.2558 21.8261C88.9278 21.4488 88.9278 21.4488 88.1604 20.7908L43.1004 59.9609C43.6452 60.8123 43.6452 60.8123 43.9732 61.1897Z"/>
</mask>
<path d="M43.9732 61.1897C44.3013 61.567 44.9573 62.3217 45.0686 62.225L90.1286 23.0549C90.1286 23.0549 89.5838 22.2035 89.2558 21.8261C88.9278 21.4488 88.9278 21.4488 88.1604 20.7908L43.1004 59.9609C43.6452 60.8123 43.6452 60.8123 43.9732 61.1897Z" fill="#6752DC"/>
<path d="M90.1286 23.0549L94.721 28.3379L99.2823 24.3729L96.0249 19.2821L90.1286 23.0549ZM88.1604 20.7908L92.7172 15.477L88.1293 11.5428L83.568 15.5078L88.1604 20.7908ZM43.1004 59.9609L38.508 54.6779L33.9467 58.643L37.2041 63.7337L43.1004 59.9609ZM38.6903 65.7821C38.8253 65.9375 39.2094 66.3826 39.5987 66.7806C39.7599 66.9453 40.1458 67.3355 40.6388 67.7133C40.834 67.8629 41.4444 68.3262 42.3221 68.6901C42.6048 68.8073 46.324 70.4088 49.661 67.508L40.4762 56.9421C42.1058 55.5255 43.9558 55.2004 45.2369 55.2362C46.4007 55.2687 47.2733 55.5873 47.6839 55.7575C48.5032 56.0972 49.0415 56.5144 49.1544 56.6009C49.3513 56.7518 49.482 56.872 49.5249 56.9118C49.5536 56.9385 49.5743 56.9586 49.586 56.9701C49.598 56.9819 49.6047 56.9887 49.6057 56.9897C49.6065 56.9906 49.5956 56.9794 49.5717 56.9536C49.5485 56.9286 49.5197 56.8969 49.4851 56.8581C49.4129 56.7774 49.3407 56.6945 49.2562 56.5973L38.6903 65.7821ZM49.661 67.508L94.721 28.3379L85.5362 17.772L40.4762 56.9421L49.661 67.508ZM90.1286 23.0549C96.0249 19.2821 96.0248 19.2819 96.0246 19.2817C96.0246 19.2816 96.0244 19.2814 96.0243 19.2812C96.0241 19.2809 96.0239 19.2806 96.0237 19.2803C96.0233 19.2796 96.0228 19.2789 96.0223 19.2781C96.0213 19.2766 96.0202 19.2748 96.019 19.2729C96.0164 19.2689 96.0133 19.2641 96.0097 19.2585C96.0025 19.2473 95.9932 19.2329 95.982 19.2155C95.9595 19.1808 95.9291 19.134 95.8923 19.0779C95.8197 18.9671 95.7175 18.8129 95.5997 18.64C95.4304 18.3916 95.0045 17.7695 94.5388 17.2337L83.9728 26.4186C83.8352 26.2602 83.8456 26.2524 84.0307 26.5241C84.0901 26.6112 84.1447 26.6935 84.1844 26.7541C84.2038 26.7837 84.2185 26.8064 84.2272 26.8197C84.2315 26.8264 84.2342 26.8305 84.2351 26.832C84.2356 26.8327 84.2356 26.8328 84.2351 26.8321C84.2349 26.8317 84.2346 26.8312 84.2341 26.8305C84.2339 26.8301 84.2336 26.8297 84.2333 26.8292C84.2332 26.829 84.233 26.8288 84.2329 26.8285C84.2328 26.8284 84.2327 26.8282 84.2326 26.8281C84.2325 26.8279 84.2324 26.8277 90.1286 23.0549ZM94.5388 17.2337C94.3915 17.0643 94.1009 16.7232 93.6813 16.3266C93.3883 16.0496 93.0286 15.7441 92.7172 15.477L83.6037 26.1046C83.8038 26.2762 83.924 26.3793 84.0122 26.4561C84.1012 26.5336 84.0995 26.534 84.0644 26.5008C84.0421 26.4798 84.012 26.4506 83.9773 26.4153C83.9426 26.3801 83.9146 26.3502 83.8962 26.33C83.8801 26.3126 83.875 26.3064 83.8897 26.3232C83.9066 26.3424 83.9282 26.3673 83.9728 26.4186L94.5388 17.2337ZM83.568 15.5078L38.508 54.6779L47.6928 65.2439L92.7529 26.0738L83.568 15.5078ZM37.2041 63.7337C37.787 64.6446 38.0116 65.0014 38.6903 65.7821L49.2562 56.5973C49.2116 56.546 49.19 56.521 49.1733 56.5017C49.1588 56.4847 49.1641 56.4907 49.1792 56.509C49.1966 56.5301 49.2223 56.562 49.2523 56.6013C49.2824 56.6405 49.3072 56.6744 49.3249 56.6994C49.3529 56.7387 49.3522 56.7404 49.2879 56.6415C49.2241 56.5434 49.1387 56.4101 48.9966 56.1881L37.2041 63.7337Z" fill="#6752DC" mask="url(#path-9-inside-3_3591_644)"/>
<mask id="path-11-inside-4_3591_644" fill="white">
<path d="M47.0919 21.5769L84.3035 64.3839C85.0582 63.7279 85.1501 63.8336 85.5274 63.5055C85.9048 63.1775 86.5676 62.4158 86.5676 62.4158L49.356 19.6087C49.356 19.6087 48.5094 20.1591 48.1321 20.4871C47.7547 20.8151 47.7547 20.8151 47.0919 21.5769Z"/>
</mask>
<path d="M47.0919 21.5769L84.3035 64.3839C85.0582 63.7279 85.1501 63.8336 85.5274 63.5055C85.9048 63.1775 86.5676 62.4158 86.5676 62.4158L49.356 19.6087C49.356 19.6087 48.5094 20.1591 48.1321 20.4871C47.7547 20.8151 47.7547 20.8151 47.0919 21.5769Z" fill="#6752DC"/>
<path d="M47.0919 21.5769L41.8111 16.9819L37.8148 21.5747L41.8089 26.1693L47.0919 21.5769ZM84.3035 64.3839L79.0205 68.9764L83.6129 74.2593L88.8959 69.6669L84.3035 64.3839ZM86.5676 62.4158L91.8483 67.0107L95.8447 62.418L91.8506 57.8234L86.5676 62.4158ZM49.356 19.6087L54.639 15.0163L50.6449 10.4217L45.5407 13.7399L49.356 19.6087ZM41.8089 26.1693L79.0205 68.9764L89.5865 59.7915L52.3748 16.9845L41.8089 26.1693ZM88.8959 69.6669C88.9627 69.6088 88.9476 69.6262 88.8692 69.6831C88.7714 69.7539 88.6705 69.8175 88.6016 69.8579C88.5928 69.8631 88.5895 69.8649 88.6004 69.8587C88.607 69.8549 88.6118 69.8521 88.6245 69.8449C88.635 69.8389 88.6504 69.8301 88.6673 69.8203C88.7328 69.7826 88.8664 69.7052 89.025 69.6049C89.3901 69.3739 89.7518 69.1084 90.1198 68.7885L80.935 58.2226C81.1143 58.0667 81.323 57.911 81.5412 57.773C81.6264 57.7191 81.688 57.684 81.6794 57.689C81.6648 57.6973 81.6741 57.692 81.6329 57.7156C81.6052 57.7315 81.5623 57.7562 81.5123 57.7856C81.279 57.9226 80.9899 58.1032 80.651 58.349C80.3312 58.5809 80.0216 58.831 79.7111 59.101L88.8959 69.6669ZM90.1198 68.7885C90.6382 68.3379 91.1371 67.7983 91.3411 67.5765C91.481 67.4244 91.603 67.2884 91.69 67.1905C91.734 67.141 91.7705 67.0997 91.7973 67.0691C91.8107 67.0538 91.8219 67.0411 91.8304 67.0313C91.8347 67.0264 91.8384 67.0222 91.8414 67.0187C91.8429 67.017 91.8442 67.0155 91.8454 67.0142C91.8459 67.0135 91.8465 67.0129 91.847 67.0123C91.8472 67.012 91.8475 67.0118 91.8477 67.0115C91.8478 67.0114 91.848 67.0112 91.848 67.0111C91.8482 67.0109 91.8483 67.0107 86.5676 62.4158C81.2869 57.8208 81.287 57.8206 81.2872 57.8204C81.2872 57.8204 81.2874 57.8202 81.2875 57.8201C81.2877 57.8199 81.2878 57.8197 81.288 57.8195C81.2883 57.8191 81.2886 57.8188 81.2889 57.8185C81.2894 57.8179 81.2898 57.8174 81.29 57.8172C81.2905 57.8166 81.2904 57.8168 81.2897 57.8175C81.2884 57.819 81.2849 57.823 81.2795 57.8292C81.2686 57.8416 81.2503 57.8623 81.2263 57.8893C81.1773 57.9445 81.11 58.0195 81.037 58.0988C80.8152 58.3399 80.794 58.3452 80.935 58.2226L90.1198 68.7885ZM91.8506 57.8234L54.639 15.0163L44.073 24.2011L81.2846 67.0082L91.8506 57.8234ZM49.356 19.6087C45.5407 13.7399 45.5405 13.74 45.5403 13.7401C45.5402 13.7402 45.54 13.7403 45.5399 13.7404C45.5396 13.7406 45.5393 13.7408 45.539 13.741C45.5383 13.7414 45.5376 13.7418 45.5369 13.7423C45.5354 13.7433 45.5337 13.7444 45.5318 13.7456C45.528 13.7481 45.5234 13.7512 45.5179 13.7547C45.507 13.7618 45.4929 13.7711 45.4758 13.7823C45.4418 13.8046 45.3958 13.835 45.3406 13.8717C45.2316 13.9442 45.08 14.0461 44.9099 14.1634C44.6619 14.3346 44.0581 14.7535 43.5397 15.2041L52.7245 25.7701C52.5834 25.8927 52.5916 25.8724 52.8612 25.6863C52.9499 25.6251 53.0335 25.5689 53.095 25.528C53.1251 25.508 53.1482 25.4928 53.162 25.4837C53.1688 25.4792 53.1732 25.4763 53.1749 25.4752C53.1758 25.4747 53.1759 25.4746 53.1753 25.475C53.175 25.4752 53.1745 25.4755 53.1739 25.4759C53.1735 25.4761 53.1732 25.4764 53.1727 25.4766C53.1725 25.4768 53.1723 25.4769 53.1721 25.4771C53.1719 25.4772 53.1718 25.4773 53.1717 25.4773C53.1715 25.4774 53.1713 25.4776 49.356 19.6087ZM43.5397 15.2041C43.3694 15.3522 43.0407 15.6325 42.6554 16.0362C42.3843 16.3202 42.0832 16.6693 41.8111 16.9819L52.3726 26.1718C52.5451 25.9736 52.6499 25.8532 52.7283 25.7644C52.8073 25.6749 52.8112 25.6726 52.7827 25.7025C52.7641 25.7219 52.7377 25.749 52.7056 25.7804C52.6735 25.8118 52.6465 25.8369 52.629 25.853C52.6139 25.8667 52.6098 25.8702 52.6276 25.8545C52.6477 25.8369 52.6734 25.8145 52.7245 25.7701L43.5397 15.2041Z" fill="#6752DC" mask="url(#path-11-inside-4_3591_644)"/>
</svg>
