<svg width="520" height="520" viewBox="0 0 520 520" fill="none" xmlns="http://www.w3.org/2000/svg">
<circle cx="260" cy="260" r="255" stroke="#C0C0C0" stroke-width="10"/>
<path d="M135 155.833C135 144.31 142.98 135 152.857 135H367.143C377.02 135 385 144.31 385 155.833C385 167.357 377.02 176.667 367.143 176.667H152.857C142.98 176.667 135 167.357 135 155.833ZM135 260C135 248.477 142.98 239.167 152.857 239.167H367.143C377.02 239.167 385 248.477 385 260C385 271.523 377.02 280.833 367.143 280.833H152.857C142.98 280.833 135 271.523 135 260ZM385 364.167C385 375.69 377.02 385 367.143 385H152.857C142.98 385 135 375.69 135 364.167C135 352.643 142.98 343.333 152.857 343.333H367.143C377.02 343.333 385 352.643 385 364.167Z" fill="white"/>
</svg>
