<svg width="100" height="97" viewBox="0 0 100 97" fill="none" xmlns="http://www.w3.org/2000/svg">
<path d="M20 20.8196L16.6508 20.1389L14.9999 17L13.3493 20.1389L10 20.8196L12.3286 23.4407L11.9094 27L14.9999 25.4808L18.0904 27L17.6712 23.4407L20 20.8196Z" fill="#6752DC"/>
<circle cx="7.5" cy="6.5" r="2.5" fill="#B4A7FF"/>
<circle cx="36.5" cy="2.5" r="2.5" fill="#6752DC"/>
<path d="M25 7L25.6735 10.4549H27.8532L26.0898 12.5902L26.7634 16.0451L25 13.9098L23.2366 16.0451L23.9102 12.5902L22.1468 10.4549H24.3265L25 7Z" fill="#9A24E9" fill-opacity="0.17"/>
<path d="M3 32L3.67354 35.4549H5.85317L4.08981 37.5902L4.76336 41.0451L3 38.9098L1.23664 41.0451L1.91019 37.5902L0.146831 35.4549H2.32646L3 32Z" fill="#9A24E9" fill-opacity="0.53"/>
<path d="M94.9167 28.9972H78.7971C79.2767 28.66 79.7272 28.2788 80.1406 27.8502C81.8383 26.0965 82.7719 23.789 82.7719 21.3475C82.7719 16.1935 78.5817 12 73.4262 12C71.6625 12 70.1461 12.5692 69.4022 12.9098L69.3887 12.9148C67.1624 13.9451 61.4068 18.9348 57.4999 22.4402C53.5929 18.9348 47.8373 13.9451 45.6092 12.9148L45.5973 12.9098C44.8517 12.571 43.3372 12 41.5733 12C36.4175 12 32.2258 16.1933 32.2258 21.3475C32.2258 23.7874 33.1593 26.0965 34.8571 27.8502C35.2723 28.2773 35.7228 28.66 36.2005 28.9972H20.083C17.2807 28.9972 15 31.2776 15 34.08V45.9995C15 48.8018 17.2807 51.0825 20.083 51.0825H22.7786V90.0058C22.7786 93.6486 25.7437 96.6136 29.3865 96.6136H49.3809H52.7696H62.2288H65.6175H85.6154C89.2582 96.6136 92.2198 93.6486 92.2198 90.0058V51.0822H94.9172C97.7196 51.0822 100 48.8016 100 45.9992V34.08C99.9995 31.2776 97.7191 28.9972 94.9167 28.9972ZM71.405 17.286C72.0572 16.9894 72.8112 16.8133 73.4262 16.8133C75.9254 16.8133 77.9601 18.8483 77.9601 21.3472C77.9601 23.7956 76.0506 25.7812 73.6092 25.8777H60.8849C65.2039 22.0116 70.0054 17.9385 71.405 17.286ZM41.5751 16.8133C42.1886 16.8133 42.9441 16.9894 43.5948 17.286C44.9944 17.9382 49.7958 22.0113 54.1165 25.8777H41.3906C38.9507 25.7812 37.0412 23.7953 37.0412 21.3472C37.0412 18.8483 39.0743 16.8133 41.5751 16.8133ZM20.083 47.6938C19.1477 47.6938 18.3887 46.933 18.3887 45.9995V34.08C18.3887 33.1465 19.1477 32.3857 20.083 32.3857H49.3809V47.6935H22.7786H20.083V47.6938ZM49.3806 93.2247H29.3881C27.6125 93.2247 26.1689 91.7795 26.1689 90.0055V51.0822H49.3825V93.2247H49.3806ZM62.2286 93.2247H52.7693V51.0822V47.6935V32.3857H62.2286V47.6935V51.0822V93.2247ZM88.8308 90.0039C88.8308 91.7795 87.3872 93.2231 85.6151 93.2231H65.6173V51.0822H88.8308V90.0039V90.0039ZM96.6111 45.9995C96.6111 46.933 95.8502 47.6938 94.9167 47.6938H92.2193H65.6173V32.3857H94.9167C95.8502 32.3857 96.6111 33.1465 96.6111 34.08V45.9995V45.9995Z" fill="#6752DC"/>
</svg>
